# xmcd
#
# Track frame offsets:
#	150
#	12368
#	34603
#	45233
#	55830
#	69792
#	92093
#	104798
#	128515
#	139765
#	157555
#	185838
#	197070
#	211170
#	224910
#	249758
#	263495
#	275325
#
# Disc length: 3884 seconds
#
# Revision: 1
# Processed by: cddbd v1.5.1PL0 Copyright (c) Steve Scherf et al.
# Submitted via: audiograbber 1.83.01
#
DISCID=f40f2a12
DTITLE=Various Artist - Legends of Gospel and Blues Vol. 2
DYEAR=1995
DGENRE=Blues
TTITLE0=Loius Armstrong - When It's Sleep Time Down South
TTITLE1=Katie Webster - Slowly I'm Falling
TTITLE2=Mahalia Jackson - Jesus
TTITLE3=Golden Gate Quartett - Joshua Fit The Battle Of Jericho
TTITLE4=Dinah Washington - My Old Flame
TTITLE5=Billie Holiday - When Your Lover Has Gone
TTITLE6=Sarah Vaughan - Prelude To A Kiss
TTITLE7=Roberta Kelly - Were You There
TTITLE8=Mahalia Jackson - Keep Your Hand On The Plow
TTITLE9=Katie Webster - Lord I Wonder
TTITLE10=Ella Fitzgerald - Louis Armstrong - Isn't This A Lovely Day
TTITLE11=John Lee Hooker - No Shoes
TTITLE12=Roberta Kelly - What A Friend We Have In Jesus
TTITLE13=Golden Gate Quartett - My Lord's Writing All The Time
TTITLE14=Mahalia Jackson - I Will Move On Up A Little Higher
TTITLE15=B.B.King - 3 O'Clock Blues
TTITLE16=John Lee Hooker - I Love You Honey
TTITLE17=Roberta Kelly - Jesus Loves Me
EXTD=
EXTT0=
EXTT1=
EXTT2=
EXTT3=
EXTT4=
EXTT5=
EXTT6=
EXTT7=
EXTT8=
EXTT9=
EXTT10=
EXTT11=
EXTT12=
EXTT13=
EXTT14=
EXTT15=
EXTT16=
EXTT17=
PLAYORDER=
